<svg viewBox="0 0 244 43" xmlns="http://www.w3.org/2000/svg" data-logo="logo">
        <g transform="translate(0, 1) rotate(0)" id="logogram" style="opacity: 1;"><path fill="#007DFC" d="M26.461 12.3052C24.8165 11.2064 22.8831 10.6199 20.9053 10.6199V0.619934C24.8609 0.619934 28.7277 1.79291 32.0167 3.99054C35.3056 6.18817 37.8691 9.31174 39.3829 12.9663C40.8966 16.6208 41.2927 20.6421 40.521 24.5217C39.7493 28.4014 37.8444 31.965 35.0474 34.7621C32.2503 37.5591 28.6867 39.4639 24.8071 40.2356C20.9275 41.0073 16.9061 40.6113 13.2516 39.0975C9.59708 37.5838 6.47351 35.0203 4.27588 31.7313C2.07825 28.4423 0.905273 24.5756 0.905273 20.6199H10.9053C10.9053 22.5977 11.4918 24.5311 12.5906 26.1756C13.6894 27.8201 15.2512 29.1018 17.0784 29.8587C18.9057 30.6156 20.9164 30.8136 22.8562 30.4278C24.796 30.0419 26.5778 29.0895 27.9763 27.691C29.3749 26.2925 30.3273 24.5106 30.7131 22.5708C31.099 20.631 30.9009 18.6204 30.1441 16.7931C29.3872 14.9658 28.1055 13.404 26.461 12.3052Z" clip-rule="evenodd" fill-rule="evenodd"></path><path fill="#1A5FB4" d="M10.9053 0.619965C10.9053 1.93318 10.6466 3.23354 10.1441 4.4468C9.64153 5.66006 8.90493 6.76245 7.97635 7.69103C7.04776 8.61962 5.94537 9.35621 4.73211 9.85876C3.51886 10.3613 2.2185 10.62 0.905279 10.62L0.905273 20.6199C3.53171 20.6199 6.13244 20.1026 8.55895 19.0976C10.9855 18.0925 13.1902 16.6193 15.0474 14.7621C16.9046 12.9049 18.3778 10.7001 19.3829 8.27363C20.388 5.84712 20.9053 3.24637 20.9053 0.619934L10.9053 0.619965Z" clip-rule="evenodd" fill-rule="evenodd"></path></g>
        <g transform="translate(47, 1)" id="logotype" style="opacity: 1;"><path d="M15.07 12.86L7.28 12.86L7.28 8.54L28.08 8.54L28.08 12.86L20.30 12.86L20.30 34L15.07 34L15.07 12.86ZM34.40 34L29.27 34L29.27 14.89L34.23 14.89L34.23 18.23L34.44 18.23Q34.97 16.45 36.20 15.54Q37.44 14.64 39.05 14.64L39.05 14.64Q39.44 14.64 39.90 14.68Q40.35 14.72 40.71 14.81L40.71 14.81L40.71 19.39Q40.37 19.27 39.72 19.20Q39.07 19.13 38.49 19.13L38.49 19.13Q37.32 19.13 36.38 19.64Q35.44 20.14 34.92 21.04Q34.40 21.93 34.40 23.13L34.40 23.13L34.40 34ZM49.88 34.38L49.88 34.38Q46.96 34.38 44.84 33.18Q42.72 31.98 41.59 29.78Q40.45 27.57 40.45 24.55L40.45 24.55Q40.45 21.59 41.58 19.37Q42.70 17.15 44.77 15.90Q46.84 14.65 49.63 14.65L49.63 14.65Q51.51 14.65 53.13 15.25Q54.75 15.85 55.98 17.06Q57.21 18.26 57.91 20.07Q58.60 21.88 58.60 24.34L58.60 24.34L58.60 25.78L42.55 25.78L42.55 22.57L56.09 22.57L53.69 23.42Q53.69 21.93 53.24 20.83Q52.79 19.73 51.89 19.12Q50.99 18.52 49.66 18.52L49.66 18.52Q48.34 18.52 47.41 19.13Q46.48 19.75 46.00 20.80Q45.52 21.85 45.52 23.20L45.52 23.20L45.52 25.47Q45.52 27.13 46.08 28.26Q46.64 29.39 47.64 29.95Q48.64 30.51 49.97 30.51L49.97 30.51Q50.87 30.51 51.61 30.26Q52.34 30.00 52.86 29.50Q53.39 28.99 53.66 28.26L53.66 28.26L58.31 29.13Q57.85 30.70 56.70 31.89Q55.56 33.08 53.84 33.73Q52.12 34.38 49.88 34.38ZM64.95 22.94L64.95 22.94L64.95 34L59.83 34L59.83 14.89L64.66 14.89L64.75 19.66L64.44 19.66Q65.19 17.27 66.72 15.96Q68.25 14.65 70.68 14.65L70.68 14.65Q72.66 14.65 74.13 15.52Q75.60 16.38 76.42 18.00Q77.24 19.61 77.24 21.85L77.24 21.85L77.24 34L72.11 34L72.11 22.74Q72.11 20.96 71.20 19.95Q70.29 18.94 68.66 18.94L68.66 18.94Q67.59 18.94 66.74 19.41Q65.89 19.88 65.42 20.77Q64.95 21.66 64.95 22.94ZM86.33 34.32L86.33 34.32Q84.13 34.32 82.36 33.19Q80.59 32.05 79.56 29.86Q78.54 27.66 78.54 24.48L78.54 24.48Q78.54 21.22 79.60 19.03Q80.66 16.84 82.42 15.75Q84.18 14.65 86.30 14.65L86.30 14.65Q87.92 14.65 89.00 15.20Q90.07 15.75 90.74 16.55Q91.41 17.35 91.73 18.11L91.73 18.11L91.90 18.11L91.90 8.54L97.03 8.54L97.03 34L91.99 34L91.99 30.94L91.73 30.94Q91.39 31.71 90.71 32.49Q90.04 33.27 88.96 33.79Q87.89 34.32 86.33 34.32ZM87.90 30.21L87.90 30.21Q89.20 30.21 90.13 29.49Q91.05 28.77 91.53 27.48Q92.00 26.19 92.00 24.46L92.00 24.46Q92.00 22.72 91.54 21.45Q91.07 20.17 90.14 19.47Q89.22 18.76 87.90 18.76L87.90 18.76Q86.55 18.76 85.64 19.49Q84.72 20.23 84.26 21.51Q83.80 22.79 83.80 24.46L83.80 24.46Q83.80 26.14 84.27 27.44Q84.74 28.74 85.66 29.47Q86.57 30.21 87.90 30.21ZM108.58 34.38L108.58 34.38Q105.52 34.38 103.26 33.44Q100.99 32.50 99.73 30.65Q98.46 28.80 98.39 26.10L98.39 26.10L103.47 26.10Q103.57 27.39 104.24 28.25Q104.91 29.11 106.02 29.54Q107.13 29.97 108.53 29.97L108.53 29.97Q109.93 29.97 110.96 29.57Q112.00 29.16 112.58 28.43Q113.16 27.69 113.16 26.72L113.16 26.72Q113.16 25.85 112.64 25.26Q112.12 24.67 111.14 24.24Q110.17 23.81 108.77 23.49L108.77 23.49L105.97 22.79Q102.74 22.00 100.91 20.32Q99.08 18.64 99.08 15.87L99.08 15.87Q99.08 13.56 100.32 11.83Q101.56 10.11 103.72 9.15Q105.88 8.19 108.65 8.19L108.65 8.19Q111.47 8.19 113.57 9.16Q115.67 10.13 116.85 11.84Q118.03 13.56 118.06 15.80L118.06 15.80L113.02 15.80Q112.89 14.26 111.72 13.42Q110.55 12.59 108.60 12.59L108.60 12.59Q107.28 12.59 106.34 12.96Q105.40 13.34 104.91 14.00Q104.41 14.67 104.41 15.53L104.41 15.53Q104.41 16.47 104.98 17.09Q105.56 17.71 106.49 18.10Q107.42 18.48 108.49 18.74L108.49 18.74L110.80 19.30Q112.41 19.66 113.79 20.28Q115.18 20.89 116.22 21.79Q117.26 22.69 117.83 23.92Q118.41 25.15 118.41 26.75L118.41 26.75Q118.41 29.06 117.24 30.78Q116.08 32.50 113.88 33.44Q111.67 34.38 108.58 34.38ZM124.90 22.94L124.90 22.94L124.90 34L119.77 34L119.77 14.89L124.61 14.89L124.69 19.66L124.39 19.66Q125.14 17.27 126.67 15.96Q128.20 14.65 130.62 14.65L130.62 14.65Q132.61 14.65 134.08 15.52Q135.55 16.38 136.37 18.00Q137.19 19.61 137.19 21.85L137.19 21.85L137.19 34L132.06 34L132.06 22.74Q132.06 20.96 131.15 19.95Q130.23 18.94 128.61 18.94L128.61 18.94Q127.53 18.94 126.68 19.41Q125.84 19.88 125.37 20.77Q124.90 21.66 124.90 22.94ZM144.41 34L139.29 34L139.29 14.89L144.41 14.89L144.41 34ZM141.85 12.40L141.85 12.40Q140.69 12.40 139.87 11.63Q139.05 10.86 139.05 9.77L139.05 9.77Q139.05 8.67 139.87 7.90Q140.69 7.13 141.85 7.13L141.85 7.13Q143.01 7.13 143.84 7.90Q144.67 8.66 144.67 9.77L144.67 9.77Q144.67 10.86 143.84 11.63Q143.01 12.40 141.85 12.40ZM151.62 41.14L146.50 41.14L146.50 14.89L151.54 14.89L151.54 18.11L151.78 18.11Q152.14 17.35 152.79 16.55Q153.45 15.75 154.53 15.20Q155.61 14.65 157.23 14.65L157.23 14.65Q159.35 14.65 161.11 15.75Q162.87 16.84 163.92 19.03Q164.97 21.22 164.97 24.48L164.97 24.48Q164.97 27.66 163.95 29.86Q162.92 32.05 161.16 33.19Q159.40 34.32 157.19 34.32L157.19 34.32Q155.64 34.32 154.56 33.79Q153.49 33.27 152.81 32.49Q152.14 31.71 151.78 30.94L151.78 30.94L151.62 30.94L151.62 41.14ZM155.62 30.21L155.62 30.21Q156.96 30.21 157.87 29.47Q158.78 28.74 159.25 27.44Q159.72 26.14 159.72 24.46L159.72 24.46Q159.72 22.79 159.25 21.51Q158.78 20.23 157.88 19.49Q156.97 18.76 155.62 18.76L155.62 18.76Q154.31 18.76 153.38 19.47Q152.46 20.17 151.98 21.45Q151.50 22.72 151.50 24.46L151.50 24.46Q151.50 26.19 151.99 27.48Q152.48 28.77 153.40 29.49Q154.32 30.21 155.62 30.21ZM174.91 34.38L174.91 34.38Q171.99 34.38 169.87 33.18Q167.75 31.98 166.62 29.78Q165.48 27.57 165.48 24.55L165.48 24.55Q165.48 21.59 166.61 19.37Q167.74 17.15 169.80 15.90Q171.87 14.65 174.66 14.65L174.66 14.65Q176.54 14.65 178.16 15.25Q179.79 15.85 181.02 17.06Q182.25 18.26 182.94 20.07Q183.63 21.88 183.63 24.34L183.63 24.34L183.63 25.78L167.58 25.78L167.58 22.57L181.12 22.57L178.73 23.42Q178.73 21.93 178.27 20.83Q177.82 19.73 176.92 19.12Q176.03 18.52 174.69 18.52L174.69 18.52Q173.38 18.52 172.45 19.13Q171.51 19.75 171.04 20.80Q170.56 21.85 170.56 23.20L170.56 23.20L170.56 25.47Q170.56 27.13 171.11 28.26Q171.67 29.39 172.67 29.95Q173.67 30.51 175.00 30.51L175.00 30.51Q175.91 30.51 176.64 30.26Q177.38 30.00 177.90 29.50Q178.42 28.99 178.69 28.26L178.69 28.26L183.34 29.13Q182.88 30.70 181.73 31.89Q180.59 33.08 178.87 33.73Q177.15 34.38 174.91 34.38ZM189.99 34L184.86 34L184.86 14.89L189.81 14.89L189.81 18.23L190.02 18.23Q190.55 16.45 191.79 15.54Q193.03 14.64 194.63 14.64L194.63 14.64Q195.03 14.64 195.48 14.68Q195.93 14.72 196.29 14.81L196.29 14.81L196.29 19.39Q195.95 19.27 195.30 19.20Q194.65 19.13 194.07 19.13L194.07 19.13Q192.91 19.13 191.97 19.64Q191.03 20.14 190.51 21.04Q189.99 21.93 189.99 23.13L189.99 23.13L189.99 34Z" fill="#111111"></path></g>
        
      </svg>